<mxfile host="app.diagrams.net" modified="2024-01-10T04:14:48.809Z" agent="Mozilla/5.0 (Macintosh; Intel Mac OS X 10_15_7) AppleWebKit/537.36 (KHTML, like Gecko) Chrome/120.0.0.0 Safari/537.36" version="21.7.1" etag="tVnPQHwqQnLOfknNRRIN" type="github">
  <diagram name="第 1 页" id="eU1CPtcxZ4fjZuy7V7a4">
    <mxGraphModel>
      <root>
        <mxCell id="0" />
        <mxCell id="1" parent="0" />
      </root>
    </mxGraphModel>
  </diagram>
</mxfile>
